<svg xmlns="http://www.w3.org/2000/svg" xmlns:xlink="http://www.w3.org/1999/xlink" width="500" zoomAndPan="magnify" viewBox="0 0 375 374.999991" height="500" preserveAspectRatio="xMidYMid meet" version="1.2"><defs><clipPath id="f8fb031b89"><path d="M 56.046875 39 L 322.296875 39 L 322.296875 343 L 56.046875 343 Z M 56.046875 39 "/></clipPath></defs><g id="ba5f0c9b53"><g clip-rule="nonzero" clip-path="url(#f8fb031b89)"><path style=" stroke:none;fill-rule:nonzero;fill:#e44d26;fill-opacity:1;" d="M 80.214844 312.039062 L 55.96875 39.503906 L 322.371094 39.503906 L 298.105469 312.003906 L 189 342.300781 Z M 80.214844 312.039062 "/></g><path style=" stroke:none;fill-rule:nonzero;fill:#f16529;fill-opacity:1;" d="M 277.324219 294.648438 L 298.070312 61.789062 L 189.171875 61.789062 L 189.171875 319.148438 Z M 277.324219 294.648438 "/><path style=" stroke:none;fill-rule:nonzero;fill:#ebebeb;fill-opacity:1;" d="M 189.058594 95.210938 L 105.539062 95.210938 L 114.535156 196.292969 L 189.171875 196.292969 L 189.171875 162.871094 L 145.039062 162.871094 L 141.992188 128.640625 L 189.171875 128.640625 L 189.171875 95.210938 Z M 189.171875 249.566406 L 189.027344 249.605469 L 151.886719 239.554688 L 149.527344 212.898438 L 116.027344 212.898438 L 120.699219 265.378906 L 189.019531 284.304688 L 189.171875 284.257812 Z M 189.171875 249.566406 "/><path style=" stroke:none;fill-rule:nonzero;fill:#ffffff;fill-opacity:1;" d="M 189.058594 196.292969 L 230.128906 196.292969 L 226.351562 239.632812 L 189.152344 249.691406 L 189.152344 284.464844 L 257.527344 265.472656 L 266.683594 162.851562 L 189.171875 162.851562 Z M 271.800781 104.179688 L 272.59375 95.210938 L 189.039062 95.210938 L 189.039062 128.632812 L 269.59375 128.632812 L 270.253906 121.121094 Z M 271.800781 104.179688 "/></g></svg>