<svg xmlns="http://www.w3.org/2000/svg" xmlns:xlink="http://www.w3.org/1999/xlink" width="500" zoomAndPan="magnify" viewBox="0 0 375 374.999991" height="500" preserveAspectRatio="xMidYMid meet" version="1.2"><defs><clipPath id="7a83bc29e4"><path d="M 45.425781 62 L 334.925781 62 L 334.925781 313 L 45.425781 313 Z M 45.425781 62 "/></clipPath></defs><g id="acc48d11a6"><path style=" stroke:none;fill-rule:nonzero;fill:#53c1de;fill-opacity:1;" d="M 216.027344 187.140625 C 216.027344 173.3125 204.457031 162.101562 190.175781 162.101562 C 175.902344 162.101562 164.324219 173.3125 164.324219 187.140625 C 164.324219 200.96875 175.902344 212.175781 190.175781 212.175781 C 204.457031 212.175781 216.027344 200.96875 216.027344 187.140625 Z M 216.027344 187.140625 "/><g clip-rule="nonzero" clip-path="url(#7a83bc29e4)"><path style=" stroke:none;fill-rule:evenodd;fill:#53c1de;fill-opacity:1;" d="M 274.136719 140.660156 C 279.59375 119.175781 286.457031 79.335938 262.265625 65.828125 C 238.1875 52.378906 206.855469 78.148438 190.3125 93.617188 C 173.816406 78.300781 141.601562 52.644531 117.433594 66.191406 C 93.363281 79.6875 100.785156 118.867188 106.367188 140.484375 C 83.914062 146.660156 45.425781 159.960938 45.425781 187.140625 C 45.425781 214.238281 83.875 228.710938 106.191406 234.878906 C 100.59375 256.617188 93.542969 295.238281 117.640625 308.703125 C 141.902344 322.25 174.015625 297.203125 190.710938 281.566406 C 207.363281 297.125 238.394531 322.335938 262.476562 308.835938 C 286.636719 295.292969 280.34375 255.984375 274.761719 234.242188 C 296.398438 228.058594 334.925781 213.902344 334.925781 187.140625 C 334.925781 160.222656 296.234375 146.8125 274.136719 140.660156 Z M 271.394531 222.71875 C 267.730469 211.484375 262.785156 199.539062 256.734375 187.199219 C 262.507812 175.152344 267.261719 163.359375 270.824219 152.199219 C 287.023438 156.746094 322.5625 167.140625 322.5625 187.140625 C 322.5625 207.324219 288.457031 217.816406 271.394531 222.71875 Z M 256.28125 298.46875 C 238.3125 308.542969 211.621094 284.429688 199.324219 272.972656 C 207.480469 264.332031 215.632812 254.285156 223.589844 243.132812 C 237.585938 241.929688 250.808594 239.964844 262.800781 237.277344 C 266.726562 252.660156 274.328125 288.351562 256.28125 298.46875 Z M 123.820312 298.324219 C 105.851562 288.289062 114.0625 253.828125 118.183594 237.816406 C 130.042969 240.355469 143.167969 242.183594 157.199219 243.285156 C 165.207031 254.199219 173.59375 264.234375 182.046875 273.019531 C 171.605469 282.804688 141.875 308.40625 123.820312 298.324219 Z M 57.792969 187.140625 C 57.792969 166.878906 93.117188 156.558594 109.6875 152.023438 C 113.308594 163.433594 118.0625 175.367188 123.796875 187.429688 C 117.988281 199.675781 113.167969 211.796875 109.511719 223.34375 C 93.714844 218.964844 57.792969 207.410156 57.792969 187.140625 Z M 123.628906 76.558594 C 141.671875 66.445312 169.667969 91.078125 181.644531 102.164062 C 173.234375 110.910156 164.925781 120.867188 156.984375 131.722656 C 143.367188 132.945312 130.335938 134.90625 118.351562 137.535156 C 113.859375 120.097656 105.605469 86.664062 123.628906 76.558594 Z M 232.4375 144.738281 C 241.675781 145.867188 250.523438 147.371094 258.835938 149.207031 C 256.339844 156.953125 253.230469 165.050781 249.566406 173.351562 C 244.261719 163.59375 238.5625 154.035156 232.4375 144.738281 Z M 190.316406 110.722656 C 196.019531 116.707031 201.730469 123.390625 207.351562 130.640625 C 195.953125 130.121094 184.535156 130.117188 173.136719 130.632812 C 178.761719 123.453125 184.523438 116.777344 190.316406 110.722656 Z M 130.894531 173.339844 C 127.292969 165.070312 124.210938 156.9375 121.695312 149.082031 C 129.953125 147.292969 138.761719 145.828125 147.9375 144.71875 C 141.796875 153.992188 136.109375 163.550781 130.894531 173.339844 Z M 148.203125 230.414062 C 138.722656 229.390625 129.78125 228.003906 121.523438 226.261719 C 124.078125 218.269531 127.226562 209.960938 130.90625 201.511719 C 136.195312 211.402344 141.972656 221.050781 148.203125 230.414062 Z M 190.65625 264.402344 C 184.796875 258.273438 178.949219 251.5 173.238281 244.214844 C 184.703125 244.648438 196.191406 244.648438 207.652344 244.152344 C 202.015625 251.574219 196.324219 258.359375 190.65625 264.402344 Z M 249.6875 201.078125 C 253.554688 209.621094 256.816406 217.886719 259.410156 225.742188 C 251.015625 227.597656 241.953125 229.09375 232.402344 230.203125 C 238.570312 220.730469 244.359375 211.019531 249.6875 201.078125 Z M 216.6875 231.652344 C 199.152344 232.867188 181.507812 232.851562 163.964844 231.753906 C 154 217.652344 145.125 202.824219 137.464844 187.425781 C 145.089844 172.0625 153.898438 157.261719 163.816406 143.183594 C 181.371094 141.898438 199.035156 141.894531 216.589844 143.191406 C 226.421875 157.269531 235.21875 172.03125 243.019531 187.257812 C 235.3125 202.613281 226.457031 217.441406 216.6875 231.652344 Z M 256.089844 76.203125 C 274.136719 86.285156 266.105469 122.089844 262.160156 137.660156 C 250.152344 134.976562 237.109375 132.976562 223.453125 131.738281 C 215.5 120.765625 207.257812 110.792969 198.980469 102.160156 C 211.113281 90.832031 238.214844 66.21875 256.089844 76.203125 Z M 256.089844 76.203125 "/></g></g></svg>